<?xml version="1.0" encoding="UTF-8"?>
<!DOCTYPE svg PUBLIC "-//W3C//DTD SVG 1.1//EN" "http://www.w3.org/Graphics/SVG/1.1/DTD/svg11.dtd">
<!-- Creator: CorelDRAW Standard 2024 -->
<svg xmlns="http://www.w3.org/2000/svg" xml:space="preserve" width="210mm" height="297mm" version="1.1" style="shape-rendering:geometricPrecision; text-rendering:geometricPrecision; image-rendering:optimizeQuality; fill-rule:evenodd; clip-rule:evenodd"
viewBox="0 0 21000 29700"
 xmlns:xlink="http://www.w3.org/1999/xlink"
 xmlns:xodm="http://www.corel.com/coreldraw/odm/2003">
 <defs>
  <style type="text/css">
   <![CDATA[
    .fil1 {fill:#050505}
    .fil0 {fill:#79f18d}
   ]]>
  </style>
 </defs>
 <g id="Layer_x0020_1">
  <metadata id="CorelCorpID_0Corel-Layer"/>
  <g id="_1690942443184">
   <path class="fil0" d="M8915.86 16580.77c193.58,-303.12 500.05,-47.22 674.51,-413.34 63.12,-132.35 143.32,-750.02 501.36,-376.47 268.42,280.01 -124.37,514.67 19.59,769.19 550.87,974.11 2609.21,1499.22 3455.61,86.72 89.56,-149.43 93.21,-267.83 242.22,-319.32 213.16,-73.65 619.52,133.15 14.55,856.48 -272.07,325.25 -706.22,677.9 -1284.7,812.38 -1819.1,422.8 -2629.79,-954.5 -2909.26,-1167.27 -254.52,119.19 -852.3,208.03 -713.88,-248.37zm3734.45 -1951.17c-391.33,-917.81 757.52,-2307.13 1449.53,-1214.35 145.8,230.16 517.16,1293.45 -37.76,1263.43 -459.63,-24.85 -64.49,-909.11 -608.81,-1110.75 -587.82,341.78 -29,1346.47 -802.96,1061.67zm-2414.39 -1073.63c-579.29,186.57 -120.4,1174 -649.53,1128.7 -493.28,-42.26 -140.46,-1050.13 -5.66,-1277.74 232.81,-393 768.07,-573.71 1167.24,-136.78 251.4,275.23 466.95,949.13 284.76,1356.11 -783.54,309.88 -239.93,-795.86 -796.81,-1070.29zm5723.76 4665.94c-232.65,-576.3 531.93,-524.83 998.55,-652.77 1777.69,-487.46 1710,-2280.45 1046.48,-3115.47 -391.91,-493.14 -501.04,-340.42 -1287.48,-255.08 -245.1,26.56 -550.33,73.04 -796,77.57 -312.53,5.76 -519.72,-205.37 -324.42,-445.04 207.38,-254.47 1841.7,-88.47 2138.18,-383.49 763.41,-759.77 626.16,-2246.92 -418.19,-2878.16 -1413.26,-854.27 -4273.71,-453.86 -5861.04,-135.75 -192.14,38.49 -533.65,178.73 -706.41,39.3 -658.71,-531.84 1461.88,-710.1 1589.49,-743.44 198.8,-52 130.64,-27.33 231.6,-232.19l404.17 -857.66c1342.13,-3501.41 -1833.05,-5716.49 -2743.59,-4188.34 -441.3,740.71 -85.41,2006.8 -373.58,2985.79 -343.14,1165.74 -1585.81,2630.46 -2498.78,3421.49 -167.72,145.32 -246.68,282.98 -389.42,450.7 -479.77,563.55 -680.69,923.04 -894.29,1668.91 -223.1,778.92 -928.37,471.12 -245.91,-897.57 278.63,-558.8 532.85,-866.16 625.15,-1049.35 -258.56,-403.81 -1932.12,-1543.93 -2594.76,-687.88 -874.82,1130.1 -1124.61,3807.71 -1104.81,5304.13 18.03,1358.66 273.48,3293.4 757.37,4392.39 274.33,623.01 526.1,1245.46 1406.31,1057.64 548.49,-117.04 1448.29,-623.58 1607.69,-973.64 -341.02,-510.13 -307.52,-315.73 -622.57,-1028.59 -673.7,-1524.41 -67.96,-1423.63 99.49,-1269.13 104.76,96.69 116.97,284.9 162.91,446.89 94.17,332.03 179.35,545.9 333.69,830.41 396.25,730.52 460.86,736.14 1266.57,1066.64 1157.07,474.7 2318.11,795.89 3704.55,959.35 1633.35,192.56 4479.64,-27.95 5618.74,-1285.18 629.37,-694.62 342.14,-1316.38 194.06,-1794.9 -423.74,59.5 -918.86,325.28 -1323.75,172.42z"/>
   <path class="fil1" d="M15959.68 18221.91c404.89,152.86 900.01,-112.92 1323.75,-172.42 148.08,478.52 435.31,1100.28 -194.06,1794.9 -1139.1,1257.23 -3985.39,1477.74 -5618.74,1285.18 -1386.44,-163.46 -2547.48,-484.65 -3704.55,-959.35 -805.71,-330.5 -870.32,-336.12 -1266.57,-1066.64 -154.34,-284.51 -239.52,-498.38 -333.69,-830.41 -45.94,-161.99 -58.15,-350.2 -162.91,-446.89 -167.45,-154.5 -773.19,-255.28 -99.49,1269.13 315.05,712.86 281.55,518.46 622.57,1028.59 -159.4,350.06 -1059.2,856.6 -1607.69,973.64 -880.21,187.82 -1131.98,-434.63 -1406.31,-1057.64 -483.89,-1098.99 -739.34,-3033.73 -757.37,-4392.39 -19.8,-1496.42 229.99,-4174.03 1104.81,-5304.13 662.64,-856.05 2336.2,284.07 2594.76,687.88 -92.3,183.19 -346.52,490.55 -625.15,1049.35 -682.46,1368.69 22.81,1676.49 245.91,897.57 213.6,-745.87 414.52,-1105.36 894.29,-1668.91 142.74,-167.72 221.7,-305.38 389.42,-450.7 912.97,-791.03 2155.64,-2255.75 2498.78,-3421.49 288.17,-978.99 -67.72,-2245.08 373.58,-2985.79 910.54,-1528.15 4085.72,686.93 2743.59,4188.34l-404.17 857.66c-100.96,204.86 -32.8,180.19 -231.6,232.19 -127.61,33.34 -2248.2,211.6 -1589.49,743.44 172.76,139.43 514.27,-0.81 706.41,-39.3 1587.33,-318.11 4447.78,-718.52 5861.04,135.75 1044.35,631.24 1181.6,2118.39 418.19,2878.16 -296.48,295.02 -1930.8,129.02 -2138.18,383.49 -195.3,239.67 11.89,450.8 324.42,445.04 245.67,-4.53 550.9,-51.01 796,-77.57 786.44,-85.34 895.57,-238.06 1287.48,255.08 663.52,835.02 731.21,2628.01 -1046.48,3115.47 -466.62,127.94 -1231.2,76.47 -998.55,652.77zm-9127.7 -7656.86c-426.8,-285.78 -437.54,-551.63 -1584.54,-980.05 -1621.33,-605.6 -2225.98,753.27 -2628.8,2129.07 -629.55,2150.28 -554.04,5491.23 43.17,7590.8 303.21,1066.13 720.3,2404.48 1978.59,2404.48 878.97,0 2027.25,-735.02 2378.12,-1258.97l578.89 260.42c215.77,90.36 381.83,160.09 603.8,235.51 455.32,154.73 843.61,267.49 1318.52,406.75 2237.23,655.87 6238.52,636.58 7909.44,-1030.15 629.74,-628.18 886.2,-1698.87 360.6,-2483.75 578.71,-154.52 1212.37,-1143.04 1212.37,-1958.41 0,-852.29 -244.85,-1653.59 -839.31,-2051.67 357.02,-533.22 526.43,-559.47 635.29,-1512.72 58.11,-509.15 -196,-1193.32 -494.13,-1612.7 -813.27,-1144.02 -2491.24,-1211.08 -3918.12,-1211.08 -371.26,0 -867.61,23.79 -1165.73,93.25 37.47,-450.1 1251.07,-2018.87 260.53,-4410.53 -196.56,-474.73 -602.45,-963.98 -978.85,-1259.31 -997.9,-783.01 -2414.28,-703.11 -2900.03,512.74 -566.62,1418.27 420.48,2460.07 -1151.78,4397.03 -171.97,211.86 -320.23,422.89 -510.38,608.74l-536.42 582.64c-183.7,183.4 -366.93,411.07 -571.23,547.91z"/>
   <path class="fil1" d="M8915.86 16580.77c-138.42,456.4 459.36,367.56 713.88,248.37 279.47,212.77 1090.16,1590.07 2909.26,1167.27 578.48,-134.48 1012.63,-487.13 1284.7,-812.38 604.97,-723.33 198.61,-930.13 -14.55,-856.48 -149.01,51.49 -152.66,169.89 -242.22,319.32 -846.4,1412.5 -2904.74,887.39 -3455.61,-86.72 -143.96,-254.52 248.83,-489.18 -19.59,-769.19 -358.04,-373.55 -438.24,244.12 -501.36,376.47 -174.46,366.12 -480.93,110.22 -674.51,413.34z"/>
   <path class="fil1" d="M12650.31 14629.6c773.96,284.8 215.14,-719.89 802.96,-1061.67 544.32,201.64 149.18,1085.9 608.81,1110.75 554.92,30.02 183.56,-1033.27 37.76,-1263.43 -692.01,-1092.78 -1840.86,296.54 -1449.53,1214.35z"/>
   <path class="fil1" d="M10235.92 13555.97c556.88,274.43 13.27,1380.17 796.81,1070.29 182.19,-406.98 -33.36,-1080.88 -284.76,-1356.11 -399.17,-436.93 -934.43,-256.22 -1167.24,136.78 -134.8,227.61 -487.62,1235.48 5.66,1277.74 529.13,45.3 70.24,-942.13 649.53,-1128.7z"/>
  </g>
 </g>
</svg>
