<?xml version="1.0" encoding="UTF-8"?>
<!DOCTYPE svg PUBLIC "-//W3C//DTD SVG 1.1//EN" "http://www.w3.org/Graphics/SVG/1.1/DTD/svg11.dtd">
<!-- Creator: CorelDRAW Standard 2024 -->
<svg xmlns="http://www.w3.org/2000/svg" xml:space="preserve" width="210mm" height="297mm" version="1.1" style="shape-rendering:geometricPrecision; text-rendering:geometricPrecision; image-rendering:optimizeQuality; fill-rule:evenodd; clip-rule:evenodd"
viewBox="0 0 21000 29700"
 xmlns:xlink="http://www.w3.org/1999/xlink"
 xmlns:xodm="http://www.corel.com/coreldraw/odm/2003">
 <defs>
  <style type="text/css">
   <![CDATA[
    .fil1 {fill:#050505}
    .fil0 {fill:#eb5858}
   ]]>
  </style>
 </defs>
 <g id="Layer_x0020_1">
  <metadata id="CorelCorpID_0Corel-Layer"/>
  <g id="_1690942314656">
   <path class="fil0" d="M11926.59 15253.77c-518.36,213.21 -235.31,-128.42 -948.93,-685.16 -356.41,-278.08 -806.11,-428.39 -1391.2,-370.06 -1173.81,117.03 -1422.95,1005.58 -1578.58,1079.26 -322.25,152.54 -423.96,-146.55 -317.48,-379.17 504.46,-1102.23 2302.18,-1679.7 3620.96,-714.15 245.06,179.41 733.32,658.72 615.23,1069.28zm-585.34 -3195.65c738.7,-263.74 911.3,987.93 340.17,1184.92 -730.97,252.14 -965.64,-961.62 -340.17,-1184.92zm-3604.37 10.75c710.24,-276.42 950.3,965.12 317.87,1172.81 -368.43,121.01 -611.56,-122.81 -669.25,-411.7 -81.08,-406.19 65.87,-650 351.38,-761.11zm317.24 -2037.2c115.68,98.85 394.14,972.84 1586.01,1053.95 566.01,38.53 1063.35,-136.77 1389.82,-414.21 660.59,-561.32 419.14,-912.8 935.84,-617.96 72.46,462.53 -490.87,924.13 -721.05,1092.31 -1452.91,1061.68 -3301.8,69.98 -3586.64,-820.38 -94.72,-295.99 188.74,-470.92 396.02,-293.71zm-4677.26 -798.09c363.94,-33.37 932.39,-309.48 1288.89,-271.51 206.57,21.99 375.43,249.72 224,483.57 -91.32,141.11 -394.86,152.91 -587.78,198.08 -930.6,217.93 -1615.43,491.64 -1957.35,1199.4 -394.27,816.25 -166.81,1919.95 321.66,2457.46 409.91,451.1 378.62,310.41 1115.91,221.93 411.15,-49.34 1113.17,-194.22 1463.26,-59 225.52,575.96 -211.73,541.74 -682.23,582.01 -418.77,35.86 -782.02,102.93 -1188.59,157.89 -334,45.16 -433.75,36.78 -735.07,610.93 -174.71,332.9 -257.92,728.66 -212.83,1148.51 272.66,2539.26 4003.32,2155.73 5884.66,1928.11 338.22,-40.9 2191.39,-407.67 2296.98,-371.99 163.83,55.32 248.22,284.18 116.86,456.32 -92.66,121.41 -329.25,146.08 -499.85,180.63 -410.32,83.19 -903.79,117.7 -1029.13,313.31 -265.94,415.1 -582.15,1460.66 -635.09,2056.39 -146.34,1647.32 579,3190.44 1748.38,3619.91 854.25,313.76 1516.06,-62.15 1736.14,-755.03 581.39,-1830.78 -1147.43,-2332.48 2436.72,-6316 122.38,-136 212.33,-200.04 325.26,-345.3 456.73,-587.55 750.52,-945.08 995.8,-1697.42 128.32,-393.57 84.28,-832.01 609.11,-713.63 240.62,309.12 -0.88,856.18 -147.41,1228.03 -116.07,294.6 -394.04,848.71 -542.92,1036.16 274.62,360.1 1097.15,828.81 1711.76,947.46 970.44,187.36 1212.25,-480.92 1491.4,-1188.67 922.97,-2340.11 758.69,-7204.59 -283.08,-9487.55 -315.95,-692.43 -574.17,-1299.86 -1610.33,-1049.37 -622.33,150.43 -1479.66,670.71 -1690.64,1042.73 134,274.63 1271.07,1725.19 1038.46,2558.33 -202.07,106.88 -193.69,100.88 -449.01,44.32 -240.27,-463.41 -169.08,-828.04 -735.82,-1738 -243.94,-391.62 -194.4,-394.69 -645.82,-598.53 -1571.12,-709.38 -3132.86,-1210.9 -4991.33,-1328.25 -2444.78,-154.31 -7449.62,456.66 -6180.97,3448.77z"/>
   <path class="fil1" d="M3376.86 9233.58c-1268.65,-2992.11 3736.19,-3603.08 6180.97,-3448.77 1858.47,117.35 3420.21,618.87 4991.33,1328.25 451.42,203.84 401.88,206.91 645.82,598.53 566.74,909.96 495.55,1274.59 735.82,1738 255.32,56.56 246.94,62.56 449.01,-44.32 232.61,-833.14 -904.46,-2283.7 -1038.46,-2558.33 210.98,-372.02 1068.31,-892.3 1690.64,-1042.73 1036.16,-250.49 1294.38,356.94 1610.33,1049.37 1041.77,2282.96 1206.05,7147.44 283.08,9487.55 -279.15,707.75 -520.96,1376.03 -1491.4,1188.67 -614.61,-118.65 -1437.14,-587.36 -1711.76,-947.46 148.88,-187.45 426.85,-741.56 542.92,-1036.16 146.53,-371.85 388.03,-918.91 147.41,-1228.03 -524.83,-118.38 -480.79,320.06 -609.11,713.63 -245.28,752.34 -539.07,1109.87 -995.8,1697.42 -112.93,145.26 -202.88,209.3 -325.26,345.3 -3584.15,3983.52 -1855.33,4485.22 -2436.72,6316 -220.08,692.88 -881.89,1068.79 -1736.14,755.03 -1169.38,-429.47 -1894.72,-1972.59 -1748.38,-3619.91 52.94,-595.73 369.15,-1641.29 635.09,-2056.39 125.34,-195.61 618.81,-230.12 1029.13,-313.31 170.6,-34.55 407.19,-59.22 499.85,-180.63 131.36,-172.14 46.97,-401 -116.86,-456.32 -105.59,-35.68 -1958.76,331.09 -2296.98,371.99 -1881.34,227.62 -5612,611.15 -5884.66,-1928.11 -45.09,-419.85 38.12,-815.61 212.83,-1148.51 301.32,-574.15 401.07,-565.77 735.07,-610.93 406.57,-54.96 769.82,-122.03 1188.59,-157.89 470.5,-40.27 907.75,-6.05 682.23,-582.01 -350.09,-135.22 -1052.11,9.66 -1463.26,59 -737.29,88.48 -706,229.17 -1115.91,-221.93 -488.47,-537.51 -715.93,-1641.21 -321.66,-2457.46 341.92,-707.76 1026.75,-981.47 1957.35,-1199.4 192.92,-45.17 496.46,-56.97 587.78,-198.08 151.43,-233.85 -17.43,-461.58 -224,-483.57 -356.5,-37.97 -924.95,238.14 -1288.89,271.51zm-884.67 -884.88c0,491.19 141.41,819.31 310.69,1139.25 -1299.26,687.46 -1614,2421.15 -1001.75,3642.75 90.4,180.42 151.14,311.71 267.81,457.17 126.37,157.53 259.79,238.53 371.46,405.3l-449.55 689.69c-559.8,1201.69 -40.78,2608.18 1007.88,3308.97 1080.3,721.89 3058.07,833.28 4442.69,639.84 373.93,-52.23 679.87,-57.37 1005.93,-133.31 -109.11,468.35 -569.61,1244.75 -569.61,2433.87 0,535.88 111.53,1083.65 239.68,1520.95 234.4,799.94 800.71,1597.37 1478.14,2043.2 1183.18,778.7 2619.62,442.03 3041.02,-876.68 534.26,-1671.97 -701.72,-2567.1 1574.78,-5260.7 259.52,-307.1 867.65,-1035.85 1123.25,-1207.04 662.71,443.79 785.16,660.39 1741.29,951.51 366.29,111.52 750.23,153.22 1127.43,53.28 989.07,-261.98 1358.4,-1556.68 1595.35,-2495.89 661.89,-2623.57 467.21,-7027.66 -699.82,-9367.54 -802.23,-1608.39 -1910.98,-1363.3 -3212.66,-707.26 -236.33,119.11 -391.49,237.23 -587.28,396.65l-533.93 501.78c-201.43,-46.94 -540.75,-225.26 -731.76,-303.95 -1592.73,-655.98 -2545.66,-773.02 -4261.01,-1020.94 -672.37,-97.18 -1339.32,-30.8 -2000.1,-23.54 -565.22,6.2 -1334.81,165.28 -1849.85,273.28 -1439.76,301.9 -3430.08,1207.7 -3430.08,2939.36z"/>
   <path class="fil1" d="M11965.79 10053.45c-516.7,-294.84 -275.25,56.64 -935.84,617.96 -326.47,277.44 -823.81,452.74 -1389.82,414.21 -1191.87,-81.11 -1470.33,-955.1 -1586.01,-1053.95 -207.28,-177.21 -490.74,-2.28 -396.02,293.71 284.84,890.36 2133.73,1882.06 3586.64,820.38 230.18,-168.18 793.51,-629.78 721.05,-1092.31z"/>
   <path class="fil1" d="M11926.59 15253.77c118.09,-410.56 -370.17,-889.87 -615.23,-1069.28 -1318.78,-965.55 -3116.5,-388.08 -3620.96,714.15 -106.48,232.62 -4.77,531.71 317.48,379.17 155.63,-73.68 404.77,-962.23 1578.58,-1079.26 585.09,-58.33 1034.79,91.98 1391.2,370.06 713.62,556.74 430.57,898.37 948.93,685.16z"/>
   <path class="fil1" d="M7736.88 12068.87c-285.51,111.11 -432.46,354.92 -351.38,761.11 57.69,288.89 300.82,532.71 669.25,411.7 632.43,-207.69 392.37,-1449.23 -317.87,-1172.81z"/>
   <path class="fil1" d="M11341.25 12058.12c-625.47,223.3 -390.8,1437.06 340.17,1184.92 571.13,-196.99 398.53,-1448.66 -340.17,-1184.92z"/>
  </g>
 </g>
</svg>
